<?xml version="1.0" encoding="UTF-8" standalone="no"?>
<!--
  - gcUnicorn
  - Copyright (C) 2023  Martin Misiarz
  -
  - This program is free software; you can redistribute it and/or
  - modify it under the terms of the GNU General Public License version 2
  - as published by the Free Software Foundation.
  -
  - This program is distributed in the hope that it will be useful,
  - but WITHOUT ANY WARRANTY; without even the implied warranty of
  - MERCHANTABILITY or FITNESS FOR A PARTICULAR PURPOSE.  See the
  - GNU General Public License for more details.
  -
  - You should have received a copy of the GNU General Public License
  - along with this program; if not, write to the Free Software
  - Foundation, Inc., 51 Franklin Street, Fifth Floor, Boston, MA  02110-1301, USA.
  -->

<!-- Generator: Adobe Illustrator 14.0.0, SVG Export Plug-In . SVG Version: 6.00 Build 43363)  -->

<svg
        xmlns:dc="http://purl.org/dc/elements/1.1/"
        xmlns:cc="http://creativecommons.org/ns#"
        xmlns:rdf="http://www.w3.org/1999/02/22-rdf-syntax-ns#"
        xmlns="http://www.w3.org/2000/svg"
        xmlns:sodipodi="http://sodipodi.sourceforge.net/DTD/sodipodi-0.dtd"
        xmlns:inkscape="http://www.inkscape.org/namespaces/inkscape"
        version="1.1"
        id="Layer_1"
        x="0px"
        y="0px"
        width="828px"
        height="591px"
        viewBox="0 0 828 591"
        enable-background="new 0 0 828 591"
        xml:space="preserve"
        sodipodi:docname="rainbow.svg"
        inkscape:version="0.92.3 (2405546, 2018-03-11)"><metadata
   id="metadata23"><rdf:RDF><cc:Work
       rdf:about=""><dc:format>image/svg+xml</dc:format><dc:type
         rdf:resource="http://purl.org/dc/dcmitype/StillImage" /><dc:title></dc:title></cc:Work></rdf:RDF></metadata><defs
   id="defs21">
	
	
	
	
	
	
	
<clipPath
   clipPathUnits="userSpaceOnUse"
   id="clipPath1109"><path
     style="fill:none;stroke:#000000;stroke-width:1px;stroke-linecap:butt;stroke-linejoin:miter;stroke-opacity:1"
     d="m 253.27474,121.36433 c 1.5896,-0.52986 21.01792,-9.89078 26.49318,-12.89334 5.47525,-3.00256 67.99915,-34.970991 67.99915,-34.970991 0,0 -9.53755,-11.656997 -23.84386,-19.251707 -14.30632,-7.59471 -18.19198,-13.599829 -39.73976,-13.599829 -21.54778,0 -34.08789,-2.296075 -60.75768,-1.236348 -26.6698,1.059727 -46.62799,-2.825939 -67.82253,5.828498 -21.19454,8.654437 -24.55034,2.649318 -34.79437,18.545222 -10.24402,15.895905 -9.36092,10.950512 -19.42832,29.672355 -10.06741,18.72184 -17.66212,17.66212 -16.779014,33.02816 0.883106,15.36604 5.828498,56.51877 5.828498,56.51877 0,0 19.781566,23.13737 22.077646,25.78669 2.29607,2.64932 18.01536,21.90102 25.43345,20.8413 7.41809,-1.05973 57.40187,-35.67748 58.63822,-39.03328 1.23635,-3.3558 -3.88566,-31.43857 3.3558,-42.03584 7.24147,-10.59727 -5.65187,-20.66467 22.78413,-22.07764 28.43601,-1.41297 52.98635,6.88822 56.87202,7.59471 3.88566,0.70648 -24.72696,-18.3686 -24.72696,-18.3686"
     id="path1111"
     inkscape:connector-curvature="0" /></clipPath><clipPath
   clipPathUnits="userSpaceOnUse"
   id="clipPath1113"><path
     style="fill:none;stroke:#000000;stroke-width:1px;stroke-linecap:butt;stroke-linejoin:miter;stroke-opacity:1"
     d="m 253.27474,121.36433 c 1.5896,-0.52986 21.01792,-9.89078 26.49318,-12.89334 5.47525,-3.00256 67.99915,-34.970991 67.99915,-34.970991 0,0 -9.53755,-11.656997 -23.84386,-19.251707 -14.30632,-7.59471 -18.19198,-13.599829 -39.73976,-13.599829 -21.54778,0 -34.08789,-2.296075 -60.75768,-1.236348 -26.6698,1.059727 -46.62799,-2.825939 -67.82253,5.828498 -21.19454,8.654437 -24.55034,2.649318 -34.79437,18.545222 -10.24402,15.895905 -9.36092,10.950512 -19.42832,29.672355 -10.06741,18.72184 -17.66212,17.66212 -16.779014,33.02816 0.883106,15.36604 5.828498,56.51877 5.828498,56.51877 0,0 19.781566,23.13737 22.077646,25.78669 2.29607,2.64932 18.01536,21.90102 25.43345,20.8413 7.41809,-1.05973 57.40187,-35.67748 58.63822,-39.03328 1.23635,-3.3558 -3.88566,-31.43857 3.3558,-42.03584 7.24147,-10.59727 -5.65187,-20.66467 22.78413,-22.07764 28.43601,-1.41297 52.98635,6.88822 56.87202,7.59471 3.88566,0.70648 -24.72696,-18.3686 -24.72696,-18.3686"
     id="path1115"
     inkscape:connector-curvature="0" /></clipPath><clipPath
   clipPathUnits="userSpaceOnUse"
   id="clipPath1117"><path
     style="fill:none;stroke:#000000;stroke-width:1px;stroke-linecap:butt;stroke-linejoin:miter;stroke-opacity:1"
     d="m 253.27474,121.36433 c 1.5896,-0.52986 21.01792,-9.89078 26.49318,-12.89334 5.47525,-3.00256 67.99915,-34.970991 67.99915,-34.970991 0,0 -9.53755,-11.656997 -23.84386,-19.251707 -14.30632,-7.59471 -18.19198,-13.599829 -39.73976,-13.599829 -21.54778,0 -34.08789,-2.296075 -60.75768,-1.236348 -26.6698,1.059727 -46.62799,-2.825939 -67.82253,5.828498 -21.19454,8.654437 -24.55034,2.649318 -34.79437,18.545222 -10.24402,15.895905 -9.36092,10.950512 -19.42832,29.672355 -10.06741,18.72184 -17.66212,17.66212 -16.779014,33.02816 0.883106,15.36604 5.828498,56.51877 5.828498,56.51877 0,0 19.781566,23.13737 22.077646,25.78669 2.29607,2.64932 18.01536,21.90102 25.43345,20.8413 7.41809,-1.05973 57.40187,-35.67748 58.63822,-39.03328 1.23635,-3.3558 -3.88566,-31.43857 3.3558,-42.03584 7.24147,-10.59727 -5.65187,-20.66467 22.78413,-22.07764 28.43601,-1.41297 52.98635,6.88822 56.87202,7.59471 3.88566,0.70648 -24.72696,-18.3686 -24.72696,-18.3686"
     id="path1119"
     inkscape:connector-curvature="0" /></clipPath><clipPath
   clipPathUnits="userSpaceOnUse"
   id="clipPath1121"><path
     style="fill:none;stroke:#000000;stroke-width:1px;stroke-linecap:butt;stroke-linejoin:miter;stroke-opacity:1"
     d="m 253.27474,121.36433 c 1.5896,-0.52986 21.01792,-9.89078 26.49318,-12.89334 5.47525,-3.00256 67.99915,-34.970991 67.99915,-34.970991 0,0 -9.53755,-11.656997 -23.84386,-19.251707 -14.30632,-7.59471 -18.19198,-13.599829 -39.73976,-13.599829 -21.54778,0 -34.08789,-2.296075 -60.75768,-1.236348 -26.6698,1.059727 -46.62799,-2.825939 -67.82253,5.828498 -21.19454,8.654437 -24.55034,2.649318 -34.79437,18.545222 -10.24402,15.895905 -9.36092,10.950512 -19.42832,29.672355 -10.06741,18.72184 -17.66212,17.66212 -16.779014,33.02816 0.883106,15.36604 5.828498,56.51877 5.828498,56.51877 0,0 19.781566,23.13737 22.077646,25.78669 2.29607,2.64932 18.01536,21.90102 25.43345,20.8413 7.41809,-1.05973 57.40187,-35.67748 58.63822,-39.03328 1.23635,-3.3558 -3.88566,-31.43857 3.3558,-42.03584 7.24147,-10.59727 -5.65187,-20.66467 22.78413,-22.07764 28.43601,-1.41297 52.98635,6.88822 56.87202,7.59471 3.88566,0.70648 -24.72696,-18.3686 -24.72696,-18.3686"
     id="path1123"
     inkscape:connector-curvature="0" /></clipPath></defs><sodipodi:namedview
   pagecolor="#ffffff"
   bordercolor="#666666"
   borderopacity="1"
   objecttolerance="10"
   gridtolerance="10"
   guidetolerance="10"
   inkscape:pageopacity="0"
   inkscape:pageshadow="2"
   inkscape:window-width="2560"
   inkscape:window-height="1393"
   id="namedview19"
   showgrid="false"
   inkscape:zoom="2.8309179"
   inkscape:cx="298.5845"
   inkscape:cy="471.10997"
   inkscape:window-x="-4"
   inkscape:window-y="-4"
   inkscape:window-maximized="1"
   inkscape:current-layer="Layer_1" />
<path
   style="fill:#fffff9;fill-opacity:1;stroke-width:0.99999875"
   inkscape:connector-curvature="0"
   id="path4"
   d="m 323.9113,157.53291 -14.7985,4.58326 c -12.68476,-40.95655 -56.1909,-63.94331 -97.21539,-51.23758 -41.02448,12.70574 -63.92247,56.25859 -51.2377,97.21515 L 145.8612,212.677 c -15.22964,-49.17347 12.19148,-101.41437 61.43194,-116.66469 49.24142,-15.25061 101.38852,12.34714 116.61816,61.5206 z"
   clip-path="url(#clipPath1121)"
   inkscape:export-filename="C:\Users\babi\Desktop\path14.png"
   inkscape:export-xdpi="164"
   inkscape:export-ydpi="164" /><path
   style="fill:#91c5ec;fill-opacity:1;stroke-width:0.99999875"
   inkscape:connector-curvature="0"
   id="path6"
   d="m 338.78814,152.92539 -14.87588,4.60723 c -15.22964,-49.17347 -67.37675,-76.77121 -116.61817,-61.5206 -49.24046,15.25032 -76.66158,67.49121 -61.43193,116.66469 l -14.87683,4.60751 C 113.20814,159.88524 145.32849,99.0483 202.72857,81.27087 260.1277,63.493723 321.01095,95.52642 338.78814,152.92539 Z"
   clip-path="url(#clipPath1117)"
   inkscape:export-filename="C:\Users\babi\Desktop\path14.png"
   inkscape:export-xdpi="164"
   inkscape:export-ydpi="164" /><path
   style="fill:#f9f16c;fill-opacity:1;stroke-width:0.99999875"
   inkscape:connector-curvature="0"
   id="path8"
   d="m 353.59619,148.33918 -14.80901,4.58651 C 321.00999,95.52671 260.12674,63.494019 202.72666,81.27146 145.32754,99.0486 113.20623,159.88583 130.98342,217.28481 l -14.8071,4.58592 C 95.854545,156.2558 132.50528,86.71704 198.12038,66.395322 263.73644,46.073306 333.27412,82.72329 353.59619,148.33918 Z"
   clip-path="url(#clipPath1113)"
   inkscape:export-filename="C:\Users\babi\Desktop\path14.png"
   inkscape:export-xdpi="164"
   inkscape:export-ydpi="164" /><path
   style="fill:#db65a2;fill-opacity:1;stroke-width:0.99999875"
   inkscape:connector-curvature="0"
   id="path10"
   d="m 368.46252,143.73491 -14.86633,4.60427 C 333.27442,82.72424 263.73644,46.073306 198.12038,66.395322 132.50528,86.71704 95.854545,156.2558 116.17632,221.87073 L 101.30999,226.475 C 78.443339,152.64315 119.68407,74.395631 193.51611,51.529036 267.34814,28.66244 345.59557,69.902111 368.46252,143.73491 Z"
   clip-path="url(#clipPath1109)"
   inkscape:export-filename="C:\Users\babi\Desktop\path14.png"
   inkscape:export-xdpi="164"
   inkscape:export-ydpi="164" /><path
   style="fill:#e0e9f6;stroke:#bfddf4;stroke-width:0.82457656"
   inkscape:connector-curvature="0"
   id="path12"
   d="m 355.0038,77.408679 c 17.33292,-14.81434 -11.63779,-29.52568 -24.10348,-15.6905 -10.89963,-14.76986 -41.67692,-11.22543 -46.36201,6.72763 -7.84684,-12.12344 -38.4995,-8.98394 -27.45084,16.18124 -25.22943,6.87898 -3.02492,46.396631 24.42156,28.475551 7.7745,17.70887 59.03774,13.81882 64.45313,-4.00708 23.25901,2.70338 36.05935,-24.443511 9.04164,-31.686841 z"
   inkscape:export-filename="C:\Users\babi\Desktop\path14.png"
   inkscape:export-xdpi="164"
   inkscape:export-ydpi="164" /><path
   style="fill:#e0e9f6;stroke:#bfddf4;stroke-width:0.83635396"
   inkscape:connector-curvature="0"
   id="path14"
   d="m 71.336168,183.01733 c -17.958093,-14.70924 12.059048,-29.31623 24.975005,-15.57919 11.292427,-14.66508 43.182307,-11.14581 48.036627,6.6799 8.13027,-12.03745 39.89012,-8.92021 28.44238,16.06644 26.14163,6.83018 3.13418,46.06749 -25.30368,28.27355 -8.05442,17.58323 -61.170205,13.72077 -66.781206,-3.97866 -24.098229,2.6842 -37.36273,-24.2701 -9.369126,-31.46204 z"
   inkscape:export-filename="C:\Users\babi\Desktop\path14.png"
   inkscape:export-xdpi="164"
   inkscape:export-ydpi="164" />
</svg>